<svg width="20" height="20" viewBox="0 0 20 20" fill="none" xmlns="http://www.w3.org/2000/svg">
<g opacity="0.2">
<path fill-rule="evenodd" clip-rule="evenodd" d="M10 7C10.5304 7 11.0391 7.21071 11.4142 7.58579C11.7893 7.96086 12 8.46957 12 9V16C12 16.5304 11.7893 17.0391 11.4142 17.4142C11.0391 17.7893 10.5304 18 10 18C9.46957 18 8.96086 17.7893 8.58579 17.4142C8.21071 17.0391 8 16.5304 8 16V9C8 8.46957 8.21071 7.96086 8.58579 7.58579C8.96086 7.21071 9.46957 7 10 7Z" fill="#393E46"/>
<path d="M12 4C12 4.53043 11.7893 5.03914 11.4142 5.41421C11.0391 5.78929 10.5304 6 10 6C9.46957 6 8.96086 5.78929 8.58579 5.41421C8.21071 5.03914 8 4.53043 8 4C8 3.46957 8.21071 2.96086 8.58579 2.58579C8.96086 2.21071 9.46957 2 10 2C10.5304 2 11.0391 2.21071 11.4142 2.58579C11.7893 2.96086 12 3.46957 12 4Z" fill="#393E46"/>
</g>
<path fill-rule="evenodd" clip-rule="evenodd" d="M9.25 6.75C9.44891 6.75 9.63968 6.82902 9.78033 6.96967C9.92098 7.11032 10 7.30109 10 7.5V16.5C10 16.6989 9.92098 16.8897 9.78033 17.0303C9.63968 17.171 9.44891 17.25 9.25 17.25C9.05109 17.25 8.86032 17.171 8.71967 17.0303C8.57902 16.8897 8.5 16.6989 8.5 16.5V7.5C8.5 7.30109 8.57902 7.11032 8.71967 6.96967C8.86032 6.82902 9.05109 6.75 9.25 6.75Z" fill="#393E46"/>
<path d="M10.5 3.25C10.5 3.58152 10.3683 3.89946 10.1339 4.13388C9.89946 4.3683 9.58152 4.5 9.25 4.5C8.91848 4.5 8.60054 4.3683 8.36612 4.13388C8.1317 3.89946 8 3.58152 8 3.25C8 2.91848 8.1317 2.60054 8.36612 2.36612C8.60054 2.1317 8.91848 2 9.25 2C9.58152 2 9.89946 2.1317 10.1339 2.36612C10.3683 2.60054 10.5 2.91848 10.5 3.25Z" fill="#393E46"/>
</svg>
