<svg width="20" height="20" viewBox="0 0 20 20" fill="none" xmlns="http://www.w3.org/2000/svg">
<path opacity="0.2" d="M11.6119 3.47391C10.8829 3.79316 10.2407 4.28183 9.73852 4.89928C9.23638 5.51673 8.88889 6.24513 8.72494 7.02391C8.58766 7.66673 8.57836 8.3303 8.69755 8.97672C8.81675 9.62314 9.0621 10.2397 9.41962 10.7913C9.77713 11.3429 10.2398 11.8187 10.7812 12.1915C11.3226 12.5642 11.9321 12.8267 12.5749 12.9639C13.6272 13.187 14.7233 13.0649 15.7006 12.6156C16.6779 12.1663 17.4842 11.4138 17.9999 10.4699C18.2449 10.0229 18.9229 10.1849 18.9389 10.6939C18.9606 11.3812 18.8988 12.0685 18.7549 12.7409C17.7769 17.3409 13.2619 20.2789 8.66993 19.3029C4.07793 18.3269 1.14993 13.8059 2.12693 9.20591C3.04693 4.87991 7.11694 1.98591 11.4719 2.51991C11.9759 2.58191 12.0769 3.26991 11.6119 3.47391Z" fill="#088C96"/>
<path fill-rule="evenodd" clip-rule="evenodd" d="M7.27494 6.02391C7.43889 5.24513 7.78638 4.51673 8.28852 3.89928C8.79065 3.28183 9.43292 2.79316 10.1619 2.47391C10.6269 2.26891 10.5259 1.58191 10.0219 1.51991C5.66694 0.985908 1.59694 3.87991 0.676937 8.20591C-0.300063 12.8059 2.62894 17.3259 7.22094 18.3029C11.8129 19.2789 16.3279 16.3409 17.3059 11.7409C17.4489 11.0684 17.5107 10.3811 17.4899 9.69391C17.4739 9.18491 16.7959 9.02291 16.5509 9.46991C16.0351 10.4142 15.2284 11.167 14.2507 11.6163C13.273 12.0656 12.1765 12.1875 11.1239 11.9639C9.82585 11.6866 8.69108 10.905 7.96925 9.79104C7.24743 8.67708 6.99768 7.32201 7.27494 6.02391ZM1.65494 8.41391C1.98632 6.85191 2.80631 5.43593 3.99614 4.37105C5.18597 3.30617 6.68388 2.64767 8.27294 2.49091C7.28394 3.33491 6.57894 4.49091 6.29694 5.81591C6.13237 6.58716 6.12132 7.38328 6.26444 8.1588C6.40755 8.93433 6.70202 9.67407 7.13103 10.3358C7.56004 10.9975 8.11519 11.5682 8.76478 12.0154C9.41437 12.4626 10.1457 12.7774 10.9169 12.9419C11.8849 13.1475 12.8887 13.1104 13.8389 12.834C14.7891 12.5577 15.6562 12.0506 16.3629 11.3579L16.3279 11.5329C15.4649 15.5929 11.4809 18.1859 7.42894 17.3249C3.37794 16.4629 0.792937 12.4749 1.65594 8.41491" fill="#088C96"/>
</svg>
