<svg width="20" height="20" viewBox="0 0 20 20" fill="none" xmlns="http://www.w3.org/2000/svg">
<path opacity="0.2" d="M3.88901 11H2.50001C2.39851 10.9998 2.29946 10.9688 2.21603 10.911C2.13259 10.8532 2.06872 10.7714 2.0329 10.6764C1.99708 10.5815 1.99102 10.4778 2.01551 10.3793C2.04 10.2808 2.09389 10.1921 2.17001 10.125L10.67 2.62499C10.7613 2.54483 10.8786 2.50063 11 2.50063C11.1215 2.50063 11.2388 2.54483 11.33 2.62499L19.83 10.125C19.9061 10.1921 19.96 10.2808 19.9845 10.3793C20.009 10.4778 20.0029 10.5815 19.9671 10.6764C19.9313 10.7714 19.8674 10.8532 19.784 10.911C19.7006 10.9688 19.6015 10.9998 19.5 11H18.111V18C18.111 18.1326 18.0583 18.2598 17.9646 18.3535C17.8708 18.4473 17.7436 18.5 17.611 18.5H4.39001C4.25741 18.5 4.13023 18.4473 4.03646 18.3535C3.94269 18.2598 3.89001 18.1326 3.89001 18L3.88901 11Z" fill="#393E46"/>
<path fill-rule="evenodd" clip-rule="evenodd" d="M1.00001 9.99999H2.38901V17C2.38901 17.1326 2.44169 17.2598 2.53546 17.3535C2.62923 17.4473 2.75641 17.5 2.88901 17.5H16.11C16.2426 17.5 16.3698 17.4473 16.4636 17.3535C16.5573 17.2598 16.61 17.1326 16.61 17V9.99999H18C18.1015 9.99985 18.2006 9.96881 18.284 9.91102C18.3674 9.85322 18.4313 9.7714 18.4671 9.67643C18.5029 9.58146 18.509 9.47784 18.4845 9.37934C18.46 9.28084 18.4061 9.19213 18.33 9.12499L9.83001 1.62499C9.73877 1.54483 9.62147 1.50063 9.50001 1.50063C9.37856 1.50063 9.26126 1.54483 9.17001 1.62499L0.670014 9.12499C0.593889 9.19213 0.54 9.28084 0.515508 9.37934C0.491015 9.47784 0.497081 9.58146 0.532898 9.67643C0.568716 9.7714 0.632588 9.85322 0.716026 9.91102C0.799463 9.96881 0.898515 9.99985 1.00001 9.99999ZM2.88901 8.99999H2.32201L9.50001 2.66699L16.678 8.99999H16.111C15.9784 8.99999 15.8512 9.05267 15.7575 9.14644C15.6637 9.24021 15.611 9.36738 15.611 9.49999V16.5H3.39001V9.49999C3.39001 9.36738 3.33734 9.24021 3.24357 9.14644C3.1498 9.05267 3.02262 8.99999 2.89001 8.99999" fill="#393E46"/>
<path fill-rule="evenodd" clip-rule="evenodd" d="M10.708 11.5H8.20801C7.94279 11.5 7.68844 11.6054 7.5009 11.7929C7.31336 11.9804 7.20801 12.2348 7.20801 12.5V16.5C7.20801 16.7652 7.31336 17.0196 7.5009 17.2071C7.68844 17.3946 7.94279 17.5 8.20801 17.5H10.708C10.9732 17.5 11.2276 17.3946 11.4151 17.2071C11.6027 17.0196 11.708 16.7652 11.708 16.5V12.5C11.708 12.2348 11.6027 11.9804 11.4151 11.7929C11.2276 11.6054 10.9732 11.5 10.708 11.5ZM8.20801 16.5V12.5H10.708V16.5H8.20801Z" fill="#393E46"/>
</svg>
