<svg width="20" height="20" viewBox="0 0 20 20" fill="none" xmlns="http://www.w3.org/2000/svg">
<path opacity="0.2" d="M13 10.5C13 11.4283 12.6313 12.3185 11.9749 12.9749C11.3185 13.6313 10.4283 14 9.5 14C8.57174 14 7.6815 13.6313 7.02513 12.9749C6.36875 12.3185 6 11.4283 6 10.5C6 9.57174 6.36875 8.6815 7.02513 8.02513C7.6815 7.36875 8.57174 7 9.5 7C10.4283 7 11.3185 7.36875 11.9749 8.02513C12.6313 8.6815 13 9.57174 13 10.5ZM0 10.5C0 10.2348 0.105357 9.98043 0.292893 9.79289C0.48043 9.60536 0.734784 9.5 1 9.5H3C3.26522 9.5 3.51957 9.60536 3.70711 9.79289C3.89464 9.98043 4 10.2348 4 10.5C4 10.7652 3.89464 11.0196 3.70711 11.2071C3.51957 11.3946 3.26522 11.5 3 11.5H1C0.734784 11.5 0.48043 11.3946 0.292893 11.2071C0.105357 11.0196 0 10.7652 0 10.5ZM15 10.5C15 10.2348 15.1054 9.98043 15.2929 9.79289C15.4804 9.60536 15.7348 9.5 16 9.5H18C18.2652 9.5 18.5196 9.60536 18.7071 9.79289C18.8946 9.98043 19 10.2348 19 10.5C19 10.7652 18.8946 11.0196 18.7071 11.2071C18.5196 11.3946 18.2652 11.5 18 11.5H16C15.7348 11.5 15.4804 11.3946 15.2929 11.2071C15.1054 11.0196 15 10.7652 15 10.5ZM13.5 14.5C13.6875 14.3125 13.9418 14.2072 14.207 14.2072C14.4722 14.2072 14.7265 14.3125 14.914 14.5L16.328 15.914C16.4235 16.0062 16.4997 16.1166 16.5521 16.2386C16.6045 16.3606 16.6321 16.4918 16.6333 16.6246C16.6344 16.7574 16.6091 16.8891 16.5588 17.012C16.5085 17.1348 16.4343 17.2465 16.3404 17.3404C16.2465 17.4343 16.1348 17.5085 16.012 17.5588C15.8891 17.6091 15.7574 17.6344 15.6246 17.6333C15.4918 17.6321 15.3606 17.6045 15.2386 17.5521C15.1166 17.4997 15.0062 17.4235 14.914 17.328L13.5 15.914C13.3125 15.7265 13.2072 15.4722 13.2072 15.207C13.2072 14.9418 13.3125 14.6875 13.5 14.5ZM2.5 3.5C2.68753 3.31253 2.94184 3.20721 3.207 3.20721C3.47216 3.20721 3.72647 3.31253 3.914 3.5L5.328 4.914C5.42351 5.00625 5.49969 5.11659 5.5521 5.2386C5.60451 5.3606 5.6321 5.49182 5.63325 5.6246C5.6344 5.75738 5.6091 5.88906 5.55882 6.01195C5.50854 6.13485 5.43429 6.2465 5.34039 6.34039C5.2465 6.43429 5.13485 6.50854 5.01195 6.55882C4.88906 6.6091 4.75738 6.6344 4.6246 6.63325C4.49182 6.6321 4.3606 6.60451 4.2386 6.5521C4.11659 6.49969 4.00625 6.42351 3.914 6.328L2.5 4.914C2.31253 4.72647 2.20721 4.47216 2.20721 4.207C2.20721 3.94184 2.31253 3.68753 2.5 3.5ZM9.5 16C9.76522 16 10.0196 16.1054 10.2071 16.2929C10.3946 16.4804 10.5 16.7348 10.5 17V19C10.5 19.2652 10.3946 19.5196 10.2071 19.7071C10.0196 19.8946 9.76522 20 9.5 20C9.23478 20 8.98043 19.8946 8.79289 19.7071C8.60536 19.5196 8.5 19.2652 8.5 19V17C8.5 16.7348 8.60536 16.4804 8.79289 16.2929C8.98043 16.1054 9.23478 16 9.5 16ZM9.5 1C9.76522 1 10.0196 1.10536 10.2071 1.29289C10.3946 1.48043 10.5 1.73478 10.5 2V4C10.5 4.26522 10.3946 4.51957 10.2071 4.70711C10.0196 4.89464 9.76522 5 9.5 5C9.23478 5 8.98043 4.89464 8.79289 4.70711C8.60536 4.51957 8.5 4.26522 8.5 4V2C8.5 1.73478 8.60536 1.48043 8.79289 1.29289C8.98043 1.10536 9.23478 1 9.5 1ZM16.328 3.5C16.5155 3.68753 16.6208 3.94184 16.6208 4.207C16.6208 4.47216 16.5155 4.72647 16.328 4.914L14.914 6.328C14.8218 6.42351 14.7114 6.49969 14.5894 6.5521C14.4674 6.60451 14.3362 6.6321 14.2034 6.63325C14.0706 6.6344 13.9389 6.6091 13.816 6.55882C13.6931 6.50854 13.5815 6.43429 13.4876 6.34039C13.3937 6.2465 13.3195 6.13485 13.2692 6.01195C13.2189 5.88906 13.1936 5.75738 13.1947 5.6246C13.1959 5.49182 13.2235 5.3606 13.2759 5.2386C13.3283 5.11659 13.4045 5.00625 13.5 4.914L14.914 3.5C15.1015 3.31253 15.3558 3.20721 15.621 3.20721C15.8862 3.20721 16.1405 3.31253 16.328 3.5ZM5.328 14.5C5.51547 14.6875 5.62079 14.9418 5.62079 15.207C5.62079 15.4722 5.51547 15.7265 5.328 15.914L3.914 17.328C3.82175 17.4235 3.71141 17.4997 3.5894 17.5521C3.4674 17.6045 3.33618 17.6321 3.2034 17.6333C3.07062 17.6344 2.93894 17.6091 2.81605 17.5588C2.69315 17.5085 2.5815 17.4343 2.48761 17.3404C2.39371 17.2465 2.31946 17.1348 2.26918 17.012C2.2189 16.8891 2.1936 16.7574 2.19475 16.6246C2.1959 16.4918 2.22349 16.3606 2.2759 16.2386C2.32831 16.1166 2.40449 16.0062 2.5 15.914L3.914 14.5C4.10153 14.3125 4.35584 14.2072 4.621 14.2072C4.88616 14.2072 5.14047 14.3125 5.328 14.5Z" fill="#088C96"/>
<path fill-rule="evenodd" clip-rule="evenodd" d="M9 13.5C9.45963 13.5 9.91475 13.4095 10.3394 13.2336C10.764 13.0577 11.1499 12.7999 11.4749 12.4749C11.7999 12.1499 12.0577 11.764 12.2336 11.3394C12.4095 10.9148 12.5 10.4596 12.5 10C12.5 9.54037 12.4095 9.08525 12.2336 8.66061C12.0577 8.23597 11.7999 7.85013 11.4749 7.52513C11.1499 7.20012 10.764 6.94231 10.3394 6.76642C9.91475 6.59053 9.45963 6.5 9 6.5C8.07174 6.5 7.1815 6.86875 6.52513 7.52513C5.86875 8.1815 5.5 9.07174 5.5 10C5.5 10.9283 5.86875 11.8185 6.52513 12.4749C7.1815 13.1313 8.07174 13.5 9 13.5ZM9 7.5C9.66304 7.5 10.2989 7.76339 10.7678 8.23223C11.2366 8.70107 11.5 9.33696 11.5 10C11.5 10.663 11.2366 11.2989 10.7678 11.7678C10.2989 12.2366 9.66304 12.5 9 12.5C8.33696 12.5 7.70107 12.2366 7.23223 11.7678C6.76339 11.2989 6.5 10.663 6.5 10C6.5 9.33696 6.76339 8.70107 7.23223 8.23223C7.70107 7.76339 8.33696 7.5 9 7.5Z" fill="#088C96"/>
<path d="M0.5 9.5C0.223858 9.5 0 9.72386 0 10C0 10.2761 0.223858 10.5 0.5 10.5H2.5C2.77614 10.5 3 10.2761 3 10C3 9.72386 2.77614 9.5 2.5 9.5H0.5Z" fill="#088C96"/>
<path d="M15.5 9.5C15.2239 9.5 15 9.72386 15 10C15 10.2761 15.2239 10.5 15.5 10.5H17.5C17.7761 10.5 18 10.2761 18 10C18 9.72386 17.7761 9.5 17.5 9.5H15.5Z" fill="#088C96"/>
<path d="M14.0607 14.3534C13.8654 14.1582 13.5488 14.1582 13.3536 14.3534C13.1583 14.5487 13.1583 14.8653 13.3536 15.0606L14.7678 16.4748C14.963 16.67 15.2796 16.67 15.4749 16.4748C15.6701 16.2795 15.6701 15.9629 15.4749 15.7677L14.0607 14.3534Z" fill="#088C96"/>
<path d="M3.06066 3.35345C2.8654 3.15819 2.54882 3.15819 2.35355 3.35345C2.15829 3.54871 2.15829 3.86529 2.35355 4.06055L3.76777 5.47477C3.96303 5.67003 4.27961 5.67003 4.47487 5.47477C4.67014 5.27951 4.67014 4.96292 4.47487 4.76766L3.06066 3.35345Z" fill="#088C96"/>
<path d="M9.5 16.5C9.5 16.2239 9.27614 16 9 16C8.72386 16 8.5 16.2239 8.5 16.5V18.5C8.5 18.7761 8.72386 19 9 19C9.27614 19 9.5 18.7761 9.5 18.5V16.5Z" fill="#088C96"/>
<path d="M9.5 1.5C9.5 1.22386 9.27614 1 9 1C8.72386 1 8.5 1.22386 8.5 1.5V3.5C8.5 3.77614 8.72386 4 9 4C9.27614 4 9.5 3.77614 9.5 3.5V1.5Z" fill="#088C96"/>
<path d="M15.4746 4.06066C15.6699 3.8654 15.6699 3.54882 15.4746 3.35355C15.2794 3.15829 14.9628 3.15829 14.7675 3.35355L13.3533 4.76777C13.1581 4.96303 13.1581 5.27961 13.3533 5.47487C13.5486 5.67014 13.8652 5.67014 14.0604 5.47487L15.4746 4.06066Z" fill="#088C96"/>
<path d="M4.47465 15.0607C4.66991 14.8654 4.66991 14.5488 4.47465 14.3536C4.27938 14.1583 3.9628 14.1583 3.76754 14.3536L2.35333 15.7678C2.15806 15.963 2.15806 16.2796 2.35333 16.4749C2.54859 16.6701 2.86517 16.6701 3.06043 16.4749L4.47465 15.0607Z" fill="#088C96"/>
</svg>
