<svg width="123" height="38" viewBox="0 0 123 38" fill="none" xmlns="http://www.w3.org/2000/svg">
<path d="M0.175781 5.18359L1.11328 2.13672C1.15234 2.09766 1.44531 2.05859 1.99219 2.01953C2.57812 1.94141 3.33984 1.86328 4.27734 1.78516C5.21484 1.66797 6.26953 1.55078 7.44141 1.43359C8.61328 1.31641 9.80469 1.19922 11.0156 1.08203C12.2656 0.964844 13.4766 0.847656 14.6484 0.730469C15.8594 0.613281 16.9727 0.496094 17.9883 0.378906C17.9883 0.378906 18.1641 0.378906 18.5156 0.378906C18.8672 0.378906 19.2578 0.378906 19.6875 0.378906C20.1172 0.378906 20.5273 0.378906 20.918 0.378906C21.3086 0.378906 21.5625 0.378906 21.6797 0.378906C22.6172 0.378906 23.2617 0.554688 23.6133 0.90625C23.9648 1.25781 24.1406 2.01953 24.1406 3.19141L13.4766 4.42188C13.3984 6.88281 13.4375 9.46094 13.5938 12.1562C13.75 14.8516 13.9453 17.5859 14.1797 20.3594C14.4141 23.0938 14.6289 25.8086 14.8242 28.5039C15.0586 31.1992 15.1758 33.7773 15.1758 36.2383C15.1758 36.5898 15.0586 36.8438 14.8242 37C14.6289 37.1172 14.375 37.1953 14.0625 37.2344C13.7891 37.2734 13.4961 37.2539 13.1836 37.1758C12.8711 37.1367 12.5977 37.0781 12.3633 37C12.2461 36.4922 12.1289 35.6133 12.0117 34.3633C11.8945 33.1133 11.7773 31.6484 11.6602 29.9688C11.543 28.2891 11.4258 26.4727 11.3086 24.5195C11.1914 22.5664 11.0742 20.6133 10.957 18.6602C10.8398 16.707 10.7227 14.8516 10.6055 13.0938C10.4883 11.2969 10.3906 9.73438 10.3125 8.40625C10.2344 7.03906 10.1562 5.98437 10.0781 5.24219C10.0391 4.5 10 4.22656 9.96094 4.42188L0.175781 5.18359ZM23.9062 26.2773C23.9062 25.3789 23.9844 24.3438 24.1406 23.1719C24.2969 21.9609 24.5508 20.75 24.9023 19.5391C25.2539 18.3281 25.6836 17.1367 26.1914 15.9648C26.7383 14.793 27.3828 13.7578 28.125 12.8594C28.8672 11.9219 29.7266 11.1797 30.7031 10.6328C31.6797 10.0469 32.7734 9.75391 33.9844 9.75391C35.2344 9.75391 36.3867 10.1836 37.4414 11.043C38.5352 11.9023 39.4531 13.0156 40.1953 14.3828C40.9766 15.75 41.5625 17.2734 41.9531 18.9531C42.3438 20.6328 42.5 22.2734 42.4219 23.875C42.4219 26.2188 41.9727 28.3086 41.0742 30.1445C40.1758 31.9805 39.0234 33.4648 37.6172 34.5977C36.25 35.7305 34.7656 36.4922 33.1641 36.8828C31.6016 37.2734 30.1172 37.1758 28.7109 36.5898C27.3438 35.9648 26.1914 34.8125 25.2539 33.1328C24.3555 31.4531 23.9062 29.168 23.9062 26.2773ZM26.0742 26.5117C26.1914 28.8945 26.6016 30.7305 27.3047 32.0195C28.0078 33.3086 28.8477 34.168 29.8242 34.5977C30.8398 34.9883 31.9336 34.9883 33.1055 34.5977C34.2773 34.207 35.3711 33.5234 36.3867 32.5469C37.4023 31.5312 38.2617 30.2812 38.9648 28.7969C39.707 27.2734 40.1172 25.5742 40.1953 23.6992C40.2734 22.293 40.1562 20.9258 39.8438 19.5977C39.5703 18.2695 39.1602 17.0977 38.6133 16.082C38.1055 15.0273 37.4609 14.207 36.6797 13.6211C35.9375 12.9961 35.0781 12.6836 34.1016 12.6836C33.1641 12.6836 32.3242 12.918 31.582 13.3867C30.8398 13.8555 30.1562 14.5 29.5312 15.3203C28.9453 16.1016 28.4375 17 28.0078 18.0156C27.5781 19.0312 27.207 20.0469 26.8945 21.0625C26.6211 22.0781 26.4062 23.0742 26.25 24.0508C26.1328 24.9883 26.0742 25.8086 26.0742 26.5117Z" fill="#393E46"/>
<path d="M46.4648 7.76172C46.3867 7.68359 46.2891 7.54688 46.1719 7.35156C46.0547 7.15625 45.9375 6.94141 45.8203 6.70703C45.7031 6.43359 45.5859 6.19922 45.4688 6.00391C45.3906 5.76953 45.3516 5.59375 45.3516 5.47656C45.3516 5.125 45.5078 4.85156 45.8203 4.65625C46.1328 4.46094 46.4844 4.34375 46.875 4.30469C47.2656 4.26563 47.6367 4.24609 47.9883 4.24609C48.3789 4.24609 48.6133 4.24609 48.6914 4.24609C48.8086 4.24609 48.9648 4.26563 49.1602 4.30469C49.3945 4.30469 49.6289 4.32422 49.8633 4.36328C50.1367 4.36328 50.3711 4.38281 50.5664 4.42188C50.7617 4.42188 50.8984 4.42188 50.9766 4.42188C52.2656 4.89062 53.7305 5.4375 55.3711 6.0625C57.0508 6.6875 58.7695 7.41016 60.5273 8.23047C62.2852 9.05078 64.0039 9.98828 65.6836 11.043C67.3633 12.0586 68.8672 13.2305 70.1953 14.5586C71.5234 15.8477 72.5977 17.2734 73.418 18.8359C74.2383 20.3984 74.6484 22.1367 74.6484 24.0508C74.6484 25.6914 74.3359 27.1758 73.7109 28.5039C73.0859 29.793 72.2461 30.9258 71.1914 31.9023C70.1758 32.8398 68.9844 33.6602 67.6172 34.3633C66.25 35.0273 64.8438 35.5742 63.3984 36.0039C61.9922 36.3945 60.5664 36.6875 59.1211 36.8828C57.6758 37.0781 56.3281 37.1758 55.0781 37.1758C54.8047 37.1758 54.3359 37.1562 53.6719 37.1172C53.0078 37.1172 52.3242 37.0977 51.6211 37.0586C50.918 37.0195 50.2734 37 49.6875 37C49.1406 36.9609 48.8477 36.9414 48.8086 36.9414L48.6914 34.7734L46.4648 7.76172ZM49.8047 7.46875C49.8047 7.54688 49.8047 7.70312 49.8047 7.9375C49.8047 8.17188 49.8047 8.44531 49.8047 8.75781C49.8438 9.03125 49.8633 9.28516 49.8633 9.51953C49.8633 9.75391 49.8633 9.92969 49.8633 10.0469C49.9023 10.6328 49.9414 11.5703 49.9805 12.8594C50.0586 14.1484 50.1172 15.6133 50.1562 17.2539C50.2344 18.8945 50.3125 20.6133 50.3906 22.4102C50.5078 24.168 50.6055 25.8672 50.6836 27.5078C50.7617 29.1094 50.8203 30.5742 50.8594 31.9023C50.9375 33.1914 50.9766 34.1484 50.9766 34.7734C51.2109 34.7734 51.582 34.793 52.0898 34.832C52.6367 34.832 53.2031 34.8516 53.7891 34.8906C54.375 34.8906 54.9219 34.9102 55.4297 34.9492C55.9766 34.9492 56.3672 34.9492 56.6016 34.9492C58.3984 34.9492 60.1758 34.7344 61.9336 34.3047C63.6914 33.8359 65.2539 33.1523 66.6211 32.2539C68.0273 31.3164 69.1602 30.125 70.0195 28.6797C70.918 27.1953 71.3672 25.418 71.3672 23.3477C71.3672 21.8242 71.0156 20.3789 70.3125 19.0117C69.6094 17.6055 68.6719 16.3164 67.5 15.1445C66.3672 13.9727 65.0586 12.918 63.5742 11.9805C62.0898 11.043 60.5469 10.2422 58.9453 9.57812C57.3828 8.875 55.8008 8.34766 54.1992 7.99609C52.6367 7.64453 51.1719 7.46875 49.8047 7.46875ZM77.168 26.2773C77.168 25.3789 77.2461 24.3438 77.4023 23.1719C77.5586 21.9609 77.8125 20.75 78.1641 19.5391C78.5156 18.3281 78.9453 17.1367 79.4531 15.9648C80 14.793 80.6445 13.7578 81.3867 12.8594C82.1289 11.9219 82.9883 11.1797 83.9648 10.6328C84.9414 10.0469 86.0352 9.75391 87.2461 9.75391C88.4961 9.75391 89.6484 10.1836 90.7031 11.043C91.7969 11.9023 92.7148 13.0156 93.457 14.3828C94.2383 15.75 94.8242 17.2734 95.2148 18.9531C95.6055 20.6328 95.7617 22.2734 95.6836 23.875C95.6836 26.2188 95.2344 28.3086 94.3359 30.1445C93.4375 31.9805 92.2852 33.4648 90.8789 34.5977C89.5117 35.7305 88.0273 36.4922 86.4258 36.8828C84.8633 37.2734 83.3789 37.1758 81.9727 36.5898C80.6055 35.9648 79.4531 34.8125 78.5156 33.1328C77.6172 31.4531 77.168 29.168 77.168 26.2773ZM79.3359 26.5117C79.4531 28.8945 79.8633 30.7305 80.5664 32.0195C81.2695 33.3086 82.1094 34.168 83.0859 34.5977C84.1016 34.9883 85.1953 34.9883 86.3672 34.5977C87.5391 34.207 88.6328 33.5234 89.6484 32.5469C90.6641 31.5312 91.5234 30.2812 92.2266 28.7969C92.9688 27.2734 93.3789 25.5742 93.457 23.6992C93.5352 22.293 93.418 20.9258 93.1055 19.5977C92.832 18.2695 92.4219 17.0977 91.875 16.082C91.3672 15.0273 90.7227 14.207 89.9414 13.6211C89.1992 12.9961 88.3398 12.6836 87.3633 12.6836C86.4258 12.6836 85.5859 12.918 84.8438 13.3867C84.1016 13.8555 83.418 14.5 82.793 15.3203C82.207 16.1016 81.6992 17 81.2695 18.0156C80.8398 19.0312 80.4688 20.0469 80.1562 21.0625C79.8828 22.0781 79.668 23.0742 79.5117 24.0508C79.3945 24.9883 79.3359 25.8086 79.3359 26.5117ZM99.375 34.7734C99.2188 34.1875 99.2188 33.7383 99.375 33.4258C99.5703 33.0742 99.8242 32.8203 100.137 32.6641C100.449 32.5078 100.801 32.4297 101.191 32.4297C101.582 32.3906 101.934 32.3711 102.246 32.3711C102.52 32.3711 102.852 32.3906 103.242 32.4297C103.633 32.4297 103.984 32.5078 104.297 32.6641C104.609 32.8203 104.844 33.0742 105 33.4258C105.156 33.7383 105.156 34.1875 105 34.7734C104.961 35.0469 104.844 35.3203 104.648 35.5938C104.453 35.8281 104.219 36.0625 103.945 36.2969C103.711 36.5312 103.438 36.7266 103.125 36.8828C102.812 37.0391 102.52 37.1172 102.246 37.1172C101.934 37.1172 101.621 37.0391 101.309 36.8828C100.996 36.7266 100.703 36.5312 100.43 36.2969C100.156 36.0625 99.9219 35.8281 99.7266 35.5938C99.5703 35.3203 99.4531 35.0469 99.375 34.7734ZM108.047 34.7734C107.891 34.1875 107.891 33.7383 108.047 33.4258C108.242 33.0742 108.496 32.8203 108.809 32.6641C109.121 32.5078 109.473 32.4297 109.863 32.4297C110.254 32.3906 110.605 32.3711 110.918 32.3711C111.191 32.3711 111.523 32.3906 111.914 32.4297C112.305 32.4297 112.656 32.5078 112.969 32.6641C113.281 32.8203 113.516 33.0742 113.672 33.4258C113.828 33.7383 113.828 34.1875 113.672 34.7734C113.633 35.0469 113.516 35.3203 113.32 35.5938C113.125 35.8281 112.891 36.0625 112.617 36.2969C112.383 36.5312 112.109 36.7266 111.797 36.8828C111.484 37.0391 111.191 37.1172 110.918 37.1172C110.605 37.1172 110.293 37.0391 109.98 36.8828C109.668 36.7266 109.375 36.5312 109.102 36.2969C108.828 36.0625 108.594 35.8281 108.398 35.5938C108.242 35.3203 108.125 35.0469 108.047 34.7734ZM116.719 34.7734C116.562 34.1875 116.562 33.7383 116.719 33.4258C116.914 33.0742 117.168 32.8203 117.48 32.6641C117.793 32.5078 118.145 32.4297 118.535 32.4297C118.926 32.3906 119.277 32.3711 119.59 32.3711C119.863 32.3711 120.195 32.3906 120.586 32.4297C120.977 32.4297 121.328 32.5078 121.641 32.6641C121.953 32.8203 122.188 33.0742 122.344 33.4258C122.5 33.7383 122.5 34.1875 122.344 34.7734C122.305 35.0469 122.188 35.3203 121.992 35.5938C121.797 35.8281 121.562 36.0625 121.289 36.2969C121.055 36.5312 120.781 36.7266 120.469 36.8828C120.156 37.0391 119.863 37.1172 119.59 37.1172C119.277 37.1172 118.965 37.0391 118.652 36.8828C118.34 36.7266 118.047 36.5312 117.773 36.2969C117.5 36.0625 117.266 35.8281 117.07 35.5938C116.914 35.3203 116.797 35.0469 116.719 34.7734Z" fill="#00ADB5"/>
</svg>
